<?xml version="1.0" encoding="utf-8"?>
<!-- Generator: Adobe Illustrator 19.2.1, SVG Export Plug-In . SVG Version: 6.00 Build 0)  -->
<svg version="1.1" id="Слой_1" xmlns="http://www.w3.org/2000/svg" xmlns:xlink="http://www.w3.org/1999/xlink" x="0px" y="0px"
	 viewBox="0 0 125.3 45.6" style="enable-background:new 0 0 125.3 45.6;" xml:space="preserve">
<style type="text/css">
	.st0{fill-rule:evenodd;clip-rule:evenodd;fill:#6AACA6;}
</style>
<path class="st0" d="M815.3,1h-10v40h-15V11h-5v30h-20V11h-5v30h-20V11h-5v30h-20V11h-5v30h-15V1h-10v40h-20V11h-5v30h-20V11h-5v30
	h-20V11h-5v30h-20V11h-5v30h-15V1h-10v40h-20V11h-5v30h-20V11h-5v30h-20V11h-5v30h-20V11h-5v30h-15V1h-10v40h-20V11h-5v30h-20V11h-5
	v30h-20V11h-5v30h-20V11h-5v30h-15V1h-10v40h-20V11h-5v30h-20V11h-5v30h-20V11h-5v30h-20V11h-5v30h-15V1h-10v40h-20V11h-5v30h-20V11
	h-5v30h-20V11h-5v30h-20V11h-5v30h-15V1h-10v40h-20V11h-5v30h-20V11h-5v30h-20V11h-5v30h-20V11h-5v30h-15V1h-10v40h-20V11h-5v30h-20
	V11h-5v30h-20V11h-5v30h-20V11h-5v30h-15V1h-10v40h-20V11h-5v30h-20V11h-5v30h-20V11h-5v30h-20V11h-5v30h-15V1h-10v40h-20V11h-5v30
	h-20V11h-5v30h-20V11h-5v30h-20V11h-5v30h-15V1h-10v40h-20V11h-5v30h-20V11h-5v30h-20V11h-5v30h-20V11h-5v30h-15V1h-10v40h-20V11h-5
	v30h-20V11h-5v30h-20V11h-5v30h-20V11h-5v30h-15V1h-10v40h-20V11h-5v30h-20V11h-5v30h-20V11h-5v30h-20V11h-5v30h-15V1h-10v40h-20V11
	h-5v30h-20V11h-5v30h-20V11h-5v30h-20V11h-5v30h-15V1h-10v40h-20V11h-5v30h-20V11h-5v30h-20V11h-5v30h-20V11h-5v30h-15V1h-10v40h-20
	V11h-5v30h-20V11h-5v30h-20V11h-5v30h-20V11h-5v30h-15V1h-10v40h-20V11h-5v30h-20V11h-5v30h-20V11h-5v30h-20V11h-5v30h-15V1h-10v40
	h-20V11h-5v30h-20V11h-5v30h-20V11h-5v30h-20V11h-5v30h-15V1h-10v40h-20V11h-5v30h-20V11h-5v30h-20V11h-5v30h-20V16h-5v25h-15V1h-10
	v40h-15V11h-5v30h-20V11h-5v30h-20V11h-5v30h-20V11h-5v30h-15V1h-10v40h-20V11h-5v30h-20V11h-5v30h-20V11h-5v30h-20V11h-5v30h-15V1
	h-10v40h-20V11h-5v30h-20V11h-5v30h-20V11h-5v30h-20V11h-5v30h-15V1h-10v40h-20V11h-5v30h-20V11h-5v30h-20V11h-5v30h-20V11h-5v30
	h-15V1h-10v40h-20V11h-5v30h-20V11h-5v30h-20V11h-5v30h-20V11h-5v30h-15V1h-10v40h-20V11h-5v30h-20V11h-5v30h-20V11h-5v30h-20V11h-5
	v30h-15V1h-10v40h-20V11h-5v30h-20V11h-5v30h-20V11h-5v30h-20V11h-5v30h-15V1h-10v40h-20V11h-5v30h-20V11h-5v30h-20V11h-5v30h-20V11
	h-5v30h-15V1h-10v40h-20V11h-5v30h-20V11h-5v30h-20V11h-5v30h-20V11h-5v30h-15V1h-10v40h-20V11h-5v30h-20V11h-5v30h-20V11h-5v30h-20
	V11h-5v30h-15V1h-10v40h-20V11h-5v30h-20V11h-5v30h-20V11h-5v30h-20V11h-5v30h-15V1h-10v40h-20V11h-5v30h-20V11h-5v30h-20V11h-5v30
	h-20V11h-5v30h-15V1h-10v40h-20V11h-5v30h-20V11h-5v30h-20V11h-5v30h-20V11h-5v30h-15V1h-10v40h-20V11h-5v30h-20V11h-5v30h-20V11h-5
	v30h-20V11h-5v30h-15V1h-10v40h-20V11h-5v30h-20V11h-5v30h-20V11h-5v30h-20V11h-5v30h-15V1h-10v40h-20V11h-5v30h-20V11h-5v30h-20V11
	h-5v30h-20V11h-5v30h-15V1h-10v40h-20V11h-5v30h-20V11h-5v30h-20V11h-5v30h-20V11h-5v30h-15V1h-10v40h-20V11h-5v30h-20V11h-5v30h-20
	V11h-5v30h-20V11h-5v30h-15V1h-10v40h-20V11h-5v30h-20V11h-5v30h-20V11h-5v30h-20V16h-5v25h-15V1h-10v45h9485v-5h-20V11h-5v30h-20
	V11h-5v30h-20V11h-5v30h-20V11h-5v30h-15V1h-10v40h-20V11h-5v30h-20V11h-5v30h-20V11h-5v30h-20V11h-5v30h-15V1h-10v40h-20V11h-5v30
	h-20V11h-5v30h-20V11h-5v30h-20V11h-5v30h-15V1h-10v40h-20V11h-5v30h-20V11h-5v30h-20V11h-5v30h-20V11h-5v30h-15V1h-10v40h-20V11h-5
	v30h-20V11h-5v30h-20V11h-5v30h-20V11h-5v30h-15V1h-10v40h-20V11h-5v30h-20V11h-5v30h-20V11h-5v30h-20V11h-5v30h-15V1h-10v40h-20V11
	h-5v30h-20V11h-5v30h-20V11h-5v30h-20V11h-5v30h-15V1h-10v40h-20V11h-5v30h-20V11h-5v30h-20V11h-5v30h-20V11h-5v30h-15V1h-10v40h-20
	V11h-5v30h-20V11h-5v30h-20V11h-5v30h-20V11h-5v30h-15V1h-10v40h-20V11h-5v30h-20V11h-5v30h-20V11h-5v30h-20V11h-5v30h-15V1h-10v40
	h-20V11h-5v30h-20V11h-5v30h-20V11h-5v30h-20V11h-5v30h-15V1h-10v40h-20V11h-5v30h-20V11h-5v30h-20V11h-5v30h-20V11h-5v30h-15V1h-10
	v40h-20V11h-5v30h-20V11h-5v30h-20V11h-5v30h-20V11h-5v30h-15V1h-10v40h-20V11h-5v30h-20V11h-5v30h-20V11h-5v30h-20V11h-5v30h-15V1
	h-10v40h-20V11h-5v30h-20V11h-5v30h-20V11h-5v30h-20V11h-5v30h-15V1h-10v40h-20V11h-5v30h-20V11h-5v30h-20V11h-5v30h-20V11h-5v30
	h-15V1h-10v40h-20V11h-5v30h-20V11h-5v30h-20V11h-5v30h-20V11h-5v30h-15V1h-10v40h-20V11h-5v30h-20V11h-5v30h-20V11h-5v30h-20V11h-5
	v30h-15V1h-10v40h-20V11h-5v30h-20V11h-5v30h-20V11h-5v30h-20V16h-5v25h-15V1h-10v40h-15V11h-5v30h-20V11h-5v30h-20V11h-5v30h-20V11
	h-5v30h-15V1h-10v40h-20V11h-5v30h-20V11h-5v30h-20V11h-5v30h-20V11h-5v30h-15V1h-10v40h-20V11h-5v30h-20V11h-5v30h-20V11h-5v30h-20
	V11h-5v30h-15V1h-10v40h-20V11h-5v30h-20V11h-5v30h-20V11h-5v30h-20V11h-5v30h-15V1h-10v40h-20V11h-5v30h-20V11h-5v30h-20V11h-5v30
	h-20V11h-5v30h-15V1h-10v40h-20V11h-5v30h-20V11h-5v30h-20V11h-5v30h-20V11h-5v30h-15V1h-10v40h-20V11h-5v30h-20V11h-5v30h-20V11h-5
	v30h-20V11h-5v30h-15V1h-10v40h-20V11h-5v30h-20V11h-5v30h-20V11h-5v30h-20V11h-5v30h-15V1h-10v40h-20V11h-5v30h-20V11h-5v30h-20V11
	h-5v30h-20V11h-5v30h-15V1h-10v40h-20V11h-5v30h-20V11h-5v30h-20V11h-5v30h-20V11h-5v30h-15V1h-10v40h-20V11h-5v30h-20V11h-5v30h-20
	V11h-5v30h-20V11h-5v30h-15V1h-10v40h-20V11h-5v30h-20V11h-5v30h-20V11h-5v30h-20V11h-5v30h-15V1h-10v40h-20V11h-5v30h-20V11h-5v30
	h-20V11h-5v30h-20V11h-5v30h-15V1h-10v40h-20V11h-5v30h-20V11h-5v30h-20V11h-5v30h-20V11h-5v30h-15V1h-10v40h-20V11h-5v30h-20V11h-5
	v30h-20V11h-5v30h-20V11h-5v30h-15V1h-10v40h-20V11h-5v30h-20V11h-5v30h-20V11h-5v30h-20V11h-5v30h-15V1h-10v40h-20V11h-5v30h-20V11
	h-5v30h-20V11h-5v30h-20V11h-5v30h-15V1h-10v40h-20V11h-5v30h-20V11h-5v30h-20V11h-5v30h-20V11h-5v30h-15V1h-10v40h-20V11h-5v30h-20
	V11h-5v30h-20V11h-5v30h-20V16h-5v25h-15V1z"/>
</svg>
